Coordinates
version=1
nRows=6
nColumns=36
inDegrees=yes

Units are S.I. units (second, meters, Newtons, ...)
If the header above contains a line with 'inDegrees', this indicates whether rotational values are in degrees (yes) or radians (no).

endheader
time	pelvis_tilt	pelvis_list	pelvis_rotation	pelvis_tx	pelvis_ty	pelvis_tz	hip_flexion_r	hip_adduction_r	hip_rotation_r	knee_angle_r	knee_angle_r_beta	ankle_angle_r	subtalar_angle_r	mtp_angle_r	hip_flexion_l	hip_adduction_l	hip_rotation_l	knee_angle_l	knee_angle_l_beta	ankle_angle_l	subtalar_angle_l	mtp_angle_l	lumbar_extension	lumbar_bending	lumbar_rotation	arm_flex_r	arm_add_r	arm_rot_r	elbow_flex_r	pro_sup_r	arm_flex_l	arm_add_l	arm_rot_l	elbow_flex_l	pro_sup_l
      7.78333330	     22.12725392	      0.99775815	      2.11868867	      0.41611555	      0.94630630	      0.10172088	    -22.70267581	      2.43805090	     -3.10584549	      0.86174315	      0.01504026	     -3.88015019	     -5.52104873	     -7.49999987	    -23.37492633	      5.84279179	     -4.75985207	      0.19423422	      0.00339003	      0.74865703	     -3.65156347	     -7.49999987	    -37.73305347	     -1.63479400	     -2.89638305	     71.22237443	      8.67698640	     47.16606055	     71.96098990	     92.78312940	     89.64678866	      3.22366967	     84.71236682	     88.40812720	     86.52585413
      7.80000000	     22.71272140	      1.04300162	      2.25035712	      0.41587586	      0.94621306	      0.10143736	    -23.18398296	      2.41804977	     -3.10726315	      1.32283660	      0.02308785	     -3.28545717	     -5.95225712	     -7.49999987	    -24.17443855	      5.82782302	     -4.74766703	      0.19957350	      0.00348321	      1.02915839	     -3.47752722	     -7.49999987	    -38.25784112	     -1.63306878	     -2.64352878	     73.19565158	     11.45365388	     43.83504478	     58.31031349	     89.86852193	     90.18386015	      4.18433413	     85.24892652	     88.71564986	     84.43789604
      7.81666670	     23.20247772	      1.08521988	      2.41177157	      0.41458103	      0.94306729	      0.10096314	    -23.19628321	      2.37599355	     -3.49654763	      2.29591605	      0.04007129	     -1.59726325	     -5.73557080	     -7.49999987	    -24.78172996	      5.79253615	     -4.53683759	      0.20904679	      0.00364855	      1.32630644	     -3.68604953	     -7.49999987	    -38.97953892	     -1.53431691	     -1.60042274	     75.09230259	     10.68531673	     44.14784549	     58.46949771	     87.30434482	     91.37296632	      5.19939747	     85.65533681	     86.88450000	     82.74315796
      7.83333330	     23.53041681	      1.12099824	      2.58370497	      0.41531098	      0.94088587	      0.10119848	    -22.71482328	      2.30179983	     -3.64558597	      3.81634657	      0.06660781	      0.33989311	     -6.05384087	     -7.49999987	    -25.19235686	      5.73418217	     -4.01804014	      0.22088279	      0.00385513	      1.38047718	     -4.41016376	     -7.49999987	    -39.30756369	     -1.41084745	     -1.07020914	     75.95541880	      9.92288006	     44.29913016	     58.39997115	     85.61530103	     92.06367116	      5.28938510	     85.83252980	     84.80110673	     81.24376355
      7.85000000	     23.68618645	      1.16357459	      2.74777224	      0.41345426	      0.94222957	      0.09943076	    -21.76669737	      2.10464052	     -4.31142992	      5.73619870	      0.10011555	      2.89014088	     -5.59152545	     -7.49999987	    -25.36780341	      5.72386080	     -4.02160956	      0.23662147	      0.00412982	      2.14736052	     -3.72503468	     -7.49999987	    -39.83090544	     -1.39039691	     -0.51649255	     76.99197872	      8.56393060	     45.56386510	     60.61074842	     83.83198094	     93.18125141	      6.23604829	     86.79387608	     84.34996179	     79.57817647
      7.86666670	     23.80730704	      1.15026093	      2.79537948	      0.41310378	      0.94086483	      0.09943773	    -20.74601353	      1.90996271	     -4.34627645	      7.46262575	      0.13024739	      5.00885760	     -6.07013138	     -7.49999987	    -25.51320092	      5.71065244	     -4.00132008	      0.25474433	      0.00444613	      2.42047028	     -3.89691593	     -7.49999987	    -40.16831008	     -1.33056348	     -0.09871136	     78.25855622	      8.08102037	     46.95886350	     60.02963990	     81.20405284	     93.93607223	      6.39809284	     87.56035154	     83.55533463	     76.94673739
